<svg xmlns="http://www.w3.org/2000/svg" viewBox="0 0 800 232"><style>.st14,.st15,.st6,.st7{stroke:#404040;stroke-width:4;stroke-miterlimit:10}.st6{fill:#b3e3ff}.st7{fill:#b18be8}.st14{fill:none}.st15{fill:#4ed1a1}</style><g id="using_x5F_branches"><path d="M264.5 74.2c0 22.6-18.4 41-41 41m41-41c0-22.6 18.4-41 41-41h160.4" class="st14"/><circle cx="348.9" cy="33.2" r="21" class="st7"/><circle cx="444.9" cy="33.2" r="21" class="st7"/><path d="M545.2 156.2c0-22.6-18.4-41-41-41m41 41c0 22.6 18.4 41 41 41h160.4" class="st14"/><circle cx="629.5" cy="197.2" r="21" class="st15"/><circle cx="725.5" cy="197.2" r="21" class="st15"/><path d="M53.5 115.2h555" class="st6"/><circle cx="74.5" cy="115.2" r="21" class="st6"/><circle cx="170.5" cy="115.2" r="21" class="st6"/><circle cx="347.9" cy="115.2" r="21" class="st6"/><circle cx="444.9" cy="115.2" r="21" class="st6"/><circle cx="629.5" cy="115.2" r="21" class="st6"/></g></svg>